<svg width="36" height="36" viewBox="0 0 36 36" fill="none" xmlns="http://www.w3.org/2000/svg">
<path d="M33 31.875C33 32.49 32.49 33 31.875 33H4.125C3.51 33 3 32.49 3 31.875C3 31.26 3.51 30.75 4.125 30.75H31.875C32.49 30.75 33 31.26 33 31.875Z" fill="#FFAA92"/>
<path d="M23.0852 6.77989L6.97516 22.8899C6.36016 23.5049 5.37016 23.5049 4.77016 22.8899H4.75516C2.67016 20.7899 2.67016 17.3999 4.75516 15.3149L15.4802 4.58989C17.5802 2.48989 20.9702 2.48989 23.0702 4.58989C23.6852 5.17489 23.6852 6.17989 23.0852 6.77989Z" fill="#FFAA92"/>
<path d="M31.2302 12.735L26.6552 8.15998C26.0402 7.54498 25.0502 7.54498 24.4502 8.15998L8.34016 24.27C7.72516 24.87 7.72516 25.86 8.34016 26.475L12.9152 31.065C15.0152 33.15 18.4052 33.15 20.5052 31.065L31.2152 20.34C33.3452 18.24 33.3452 14.835 31.2302 12.735ZM19.1402 26.28L17.3252 28.11C16.9502 28.485 16.3352 28.485 15.9452 28.11C15.5702 27.735 15.5702 27.12 15.9452 26.73L17.7752 24.9C18.1352 24.54 18.7652 24.54 19.1402 24.9C19.5152 25.275 19.5152 25.92 19.1402 26.28ZM25.0952 20.325L21.4352 24C21.0602 24.36 20.4452 24.36 20.0552 24C19.6802 23.625 19.6802 23.01 20.0552 22.62L23.7302 18.945C24.0902 18.585 24.7202 18.585 25.0952 18.945C25.4702 19.335 25.4702 19.95 25.0952 20.325Z" fill="#FFAA92"/>
</svg>
