<svg width="36" height="36" viewBox="0 0 36 36" fill="none" xmlns="http://www.w3.org/2000/svg">
<path d="M25.5 33H10.5C9.885 33 9.375 32.49 9.375 31.875C9.375 31.26 9.885 30.75 10.5 30.75H25.5C26.115 30.75 26.625 31.26 26.625 31.875C26.625 32.49 26.115 33 25.5 33Z" fill="#FFAA92"/>
<path d="M30.5253 8.28006L24.5253 12.5701C23.7303 13.1401 22.5903 12.7951 22.2453 11.8801L19.4103 4.32006C18.9303 3.01506 17.0853 3.01506 16.6053 4.32006L13.7553 11.8651C13.4103 12.7951 12.2853 13.1401 11.4903 12.5551L5.49033 8.26506C4.29033 7.42506 2.70033 8.61006 3.19533 10.0051L9.43533 27.4801C9.64533 28.0801 10.2153 28.4701 10.8453 28.4701H25.1403C25.7703 28.4701 26.3403 28.0651 26.5503 27.4801L32.7903 10.0051C33.3003 8.61006 31.7103 7.42506 30.5253 8.28006ZM21.7503 22.1251H14.2503C13.6353 22.1251 13.1253 21.6151 13.1253 21.0001C13.1253 20.3851 13.6353 19.8751 14.2503 19.8751H21.7503C22.3653 19.8751 22.8753 20.3851 22.8753 21.0001C22.8753 21.6151 22.3653 22.1251 21.7503 22.1251Z" fill="#FFAA92"/>
</svg>
