<svg width="36" height="36" viewBox="0 0 36 36" fill="none" xmlns="http://www.w3.org/2000/svg">
<path d="M26.5646 3H25.1396C24.5546 3 24.0746 3.48 24.0746 4.065C24.0746 4.665 24.5546 5.145 25.1396 5.145H26.5646C29.1296 5.145 31.2146 7.23 31.2146 9.78V18.6C30.6746 18.315 30.0746 18.165 29.4296 18.165H23.7146C21.5546 18.165 19.7846 19.92 19.7846 22.095V24.435H16.2146V22.095C16.2146 19.92 14.4446 18.165 12.2846 18.165H6.56965C5.92465 18.165 5.32465 18.315 4.78465 18.6V9.78C4.78465 7.23 6.86965 5.145 9.43465 5.145H10.8596C11.4446 5.145 11.9246 4.665 11.9246 4.065C11.9246 3.48 11.4446 3 10.8596 3L9.43465 3C5.68465 3 2.63965 6.045 2.63965 9.78L2.63965 22.095L2.63965 29.07C2.63965 31.245 4.40965 33 6.56965 33H12.2846C14.4446 33 16.2146 31.245 16.2146 29.07V26.565H19.7846V29.07C19.7846 31.245 21.5546 33 23.7146 33H29.4296C31.5896 33 33.3596 31.245 33.3596 29.07V22.095V9.78C33.3596 6.045 30.3146 3 26.5646 3Z" fill="#FFAA92"/>
</svg>
