<svg width="24" height="24" viewBox="0 0 24 24" fill="none" xmlns="http://www.w3.org/2000/svg">
<path d="M3.97969 0.604688C3.22031 0.9 2.57812 1.29375 1.93594 1.93594C1.29375 2.57344 0.9 3.22031 0.604688 3.975C0.31875 4.70625 0.126563 5.54531 0.0703125 6.77344C0.0140625 8.00156 0 8.39531 0 11.5266C0 14.6578 0.0140625 15.0516 0.0703125 16.2797C0.126563 17.5078 0.323438 18.3469 0.604688 19.0781C0.9 19.8375 1.29375 20.4797 1.93594 21.1219C2.57812 21.7641 3.22031 22.1578 3.97969 22.4531C4.71094 22.7391 5.55 22.9313 6.77813 22.9875C8.00625 23.0438 8.4 23.0578 11.5313 23.0578C14.6625 23.0578 15.0562 23.0438 16.2844 22.9875C17.5125 22.9313 18.3516 22.7344 19.0828 22.4531C19.8422 22.1578 20.4844 21.7641 21.1266 21.1219C21.7687 20.4797 22.1625 19.8375 22.4578 19.0781C22.7437 18.3469 22.9359 17.5078 22.9922 16.2797C23.0484 15.0516 23.0625 14.6578 23.0625 11.5266C23.0625 8.39531 23.0484 8.00156 22.9922 6.77344C22.9359 5.54531 22.7391 4.70625 22.4578 3.975C22.1625 3.22031 21.7687 2.57344 21.1312 1.93594C20.4891 1.29375 19.8469 0.9 19.0875 0.604688C18.3562 0.31875 17.5172 0.126563 16.2891 0.0703125C15.0609 0.0140625 14.6672 0 11.5359 0C8.40469 0 8.01094 0.0140625 6.78281 0.0703125C5.55 0.121875 4.71094 0.31875 3.97969 0.604688ZM16.1906 2.14219C17.3156 2.19375 17.925 2.38125 18.3328 2.54063C18.8719 2.75156 19.2563 3 19.6594 3.40312C20.0625 3.80625 20.3109 4.19062 20.5219 4.72969C20.6812 5.1375 20.8687 5.74687 20.9203 6.87187C20.9766 8.08594 20.9859 8.45156 20.9859 11.5312C20.9859 14.6109 20.9719 14.9766 20.9203 16.1906C20.8687 17.3156 20.6812 17.925 20.5219 18.3328C20.3109 18.8719 20.0625 19.2563 19.6594 19.6594C19.2563 20.0625 18.8719 20.3109 18.3328 20.5219C17.925 20.6813 17.3156 20.8688 16.1906 20.9203C14.9766 20.9766 14.6109 20.9859 11.5313 20.9859C8.45156 20.9859 8.08594 20.9719 6.87188 20.9203C5.74688 20.8688 5.1375 20.6813 4.72969 20.5219C4.19063 20.3109 3.80625 20.0625 3.40313 19.6594C3 19.2563 2.75156 18.8719 2.54063 18.3328C2.38125 17.925 2.19375 17.3156 2.14219 16.1906C2.08594 14.9766 2.07656 14.6109 2.07656 11.5312C2.07656 8.45156 2.09063 8.08594 2.14219 6.87187C2.19375 5.74687 2.38125 5.1375 2.54063 4.72969C2.75156 4.19062 3 3.80625 3.40313 3.40312C3.80625 3 4.19063 2.75156 4.72969 2.54063C5.1375 2.38125 5.74688 2.19375 6.87188 2.14219C8.08594 2.08594 8.45156 2.07656 11.5313 2.07656C14.6109 2.07656 14.9766 2.08594 16.1906 2.14219Z" fill="url(#paint0_radial_152_1056)"/>
<path d="M5.61133 11.5316C5.61133 14.8035 8.26445 17.452 11.5316 17.452C14.7988 17.452 17.452 14.7988 17.452 11.5316C17.452 8.26445 14.8035 5.61133 11.5316 5.61133C8.25977 5.61133 5.61133 8.25976 5.61133 11.5316ZM15.3754 11.5316C15.3754 13.6551 13.6551 15.3754 11.5316 15.3754C9.4082 15.3754 7.68789 13.6551 7.68789 11.5316C7.68789 9.4082 9.4082 7.68789 11.5316 7.68789C13.6551 7.68789 15.3754 9.4082 15.3754 11.5316Z" fill="url(#paint1_radial_152_1056)"/>
<path d="M17.6904 6.75977C18.4541 6.75977 19.0732 6.14066 19.0732 5.37695C19.0732 4.61325 18.4541 3.99414 17.6904 3.99414C16.9267 3.99414 16.3076 4.61325 16.3076 5.37695C16.3076 6.14066 16.9267 6.75977 17.6904 6.75977Z" fill="#654C9F"/>
<defs>
<radialGradient id="paint0_radial_152_1056" cx="0" cy="0" r="1" gradientUnits="userSpaceOnUse" gradientTransform="translate(0.419623 20.9468) rotate(-3.00009) scale(33.3428 28.3411)">
<stop stop-color="#FED576"/>
<stop offset="0.2634" stop-color="#F47133"/>
<stop offset="0.6091" stop-color="#BC3081"/>
<stop offset="1" stop-color="#4C63D2"/>
</radialGradient>
<radialGradient id="paint1_radial_152_1056" cx="0" cy="0" r="1" gradientUnits="userSpaceOnUse" gradientTransform="translate(5.82608 16.3662) rotate(-3.00009) scale(17.122 14.5535)">
<stop stop-color="#FED576"/>
<stop offset="0.2634" stop-color="#F47133"/>
<stop offset="0.6091" stop-color="#BC3081"/>
<stop offset="1" stop-color="#4C63D2"/>
</radialGradient>
</defs>
</svg>
