<svg width="266" height="36" viewBox="0 0 266 36" fill="none" xmlns="http://www.w3.org/2000/svg">
<rect width="36" height="36" rx="18" fill="#D9D9D9"/>
<mask id="path-2-outside-1_17_291" maskUnits="userSpaceOnUse" x="3" y="3" width="30" height="28" fill="black">
<rect fill="white" x="3" y="3" width="30" height="28"/>
<path fill-rule="evenodd" clip-rule="evenodd" d="M17.8871 5.11015C17.9018 6.04621 17.9195 6.2203 18 6.2203C18.0805 6.2203 18.0982 6.04621 18.1129 5.11015C18.1298 4.02864 18.1269 4 18 4C17.8731 4 17.8702 4.02864 17.8871 5.11015ZM14.334 4.49973C14.2849 4.53274 14.3457 4.8553 14.5347 5.56521C14.6839 6.12518 14.8218 6.59936 14.8412 6.61892C14.8605 6.63849 14.918 6.63836 14.9688 6.61866C15.0486 6.58764 15.0494 6.54028 14.9749 6.27281C14.9274 6.10233 14.7976 5.62255 14.6864 5.20668C14.5752 4.79081 14.4662 4.45095 14.4443 4.45146C14.4224 4.45204 14.3729 4.47373 14.334 4.49973ZM21.4324 4.72671C21.156 5.78055 20.9833 6.42527 20.9584 6.49626C20.9294 6.57908 21.0947 6.68379 21.1562 6.62162C21.1942 6.58314 21.6896 4.71062 21.6903 4.60218C21.6907 4.5617 21.6487 4.51228 21.5972 4.49226C21.5293 4.46588 21.4839 4.53036 21.4324 4.72671ZM10.9688 5.92966C10.9262 5.9993 11.9299 7.86229 12.0088 7.86042C12.2088 7.85559 12.1554 7.69631 11.6651 6.8331C11.374 6.32069 11.1079 5.89195 11.0738 5.8805C11.0396 5.86898 10.9924 5.89111 10.9688 5.92966ZM24.3377 6.81341C23.872 7.62198 23.8073 7.76897 23.8946 7.81846C24.0149 7.88649 23.9616 7.96088 24.5899 6.84784C25.0259 6.0755 25.1 5.86634 24.9378 5.86634C24.9078 5.86634 24.6377 6.29251 24.3377 6.81341ZM17.8727 7.21782C17.8727 7.7541 17.8821 7.79703 18 7.79703C18.1179 7.79703 18.1273 7.7541 18.1273 7.21782C18.1273 6.68154 18.1179 6.63861 18 6.63861C17.8821 6.63861 17.8727 6.68154 17.8727 7.21782ZM15.0202 7.01787C14.953 7.05976 14.9649 7.17812 15.0812 7.62655C15.2122 8.13181 15.318 8.29013 15.4167 8.12859C15.4518 8.07125 15.2114 7.09007 15.143 7.01137C15.1213 6.98627 15.066 6.98916 15.0202 7.01787ZM20.6856 7.52352C20.515 8.19295 20.5155 8.18317 20.6573 8.18317C20.8072 8.18317 21.1028 7.09554 20.9753 7.01362C20.9313 6.98543 20.8805 6.96194 20.8623 6.96136C20.844 6.96085 20.7646 7.21383 20.6856 7.52352ZM8.08138 8.16386C8.0243 8.18684 8.26281 8.47071 8.77788 8.9929C9.40063 9.62417 9.57906 9.772 9.64817 9.71402C9.71817 9.65526 9.58893 9.49282 8.98445 8.87996C8.57157 8.46132 8.21903 8.12113 8.20102 8.1239C8.18295 8.12666 8.12911 8.14468 8.08138 8.16386ZM12.2406 8.18368C12.188 8.26979 12.7212 9.21287 12.8225 9.21287C12.9843 9.21287 12.9569 9.09819 12.6799 8.61468C12.4025 8.13078 12.3215 8.0513 12.2406 8.18368ZM23.5502 8.20306C23.5176 8.24521 23.3842 8.47516 23.2537 8.71405C23.0499 9.08719 23.031 9.15399 23.1201 9.18855C23.177 9.21068 23.2326 9.21796 23.2434 9.20476C23.2912 9.14633 23.7909 8.25415 23.7909 8.22712C23.7909 8.15286 23.6034 8.13413 23.5502 8.20306ZM27.0156 8.87996C26.411 9.49295 26.2818 9.65526 26.3519 9.71402C26.421 9.77206 26.5931 9.63054 27.1911 9.02424C27.8466 8.35957 28.0115 8.11881 27.8111 8.11881C27.7864 8.11881 27.4284 8.46132 27.0156 8.87996ZM17.8727 9.41064C17.8727 10.5451 17.8812 10.6365 17.9841 10.6165C18.0847 10.597 18.0971 10.4782 18.1128 9.38902C18.1296 8.21593 18.1266 8.18317 18.0014 8.18317C17.8767 8.18317 17.8727 8.22159 17.8727 9.41064ZM15.4128 8.55425C15.3598 8.58842 15.423 8.91535 15.639 9.7236C15.9167 10.7629 16.0172 10.9945 16.1185 10.8287C16.1614 10.7585 15.584 8.50431 15.5235 8.50592C15.5031 8.5065 15.4533 8.52825 15.4128 8.55425ZM20.4182 8.53648C20.4182 8.5538 20.2884 9.05166 20.1297 9.64277C19.8528 10.6738 19.8227 10.926 19.9825 10.8721C20.095 10.8342 20.6725 8.6123 20.585 8.55418C20.5026 8.49961 20.4182 8.49066 20.4182 8.53648ZM13.053 9.54804C13.0033 9.60982 13.1325 9.887 13.5558 10.6271C13.8692 11.1748 14.1361 11.6336 14.1489 11.6466C14.1618 11.6596 14.2159 11.6455 14.2692 11.6154C14.3492 11.5701 14.2682 11.3888 13.8031 10.5733C13.168 9.46 13.1471 9.4313 13.053 9.54804ZM22.2149 10.5191C21.7804 11.2808 21.6464 11.5666 21.7058 11.6047C21.7501 11.6332 21.8007 11.6564 21.8182 11.6564C21.8357 11.6564 22.1135 11.1938 22.4355 10.6283C22.9472 9.72952 23.0073 9.59283 22.9127 9.54257C22.8215 9.49404 22.7124 9.64664 22.2149 10.5191ZM9.93155 10.001C9.82597 10.1297 10.6424 10.9517 10.7588 10.834C10.8208 10.7713 10.7504 10.6671 10.4207 10.3336C10.0819 9.991 9.99066 9.92897 9.93155 10.001ZM25.5713 10.3406C25.2489 10.6695 25.1804 10.7726 25.2425 10.8353C25.3044 10.898 25.4075 10.8268 25.7372 10.4933C26.076 10.1507 26.1374 10.0585 26.0661 9.99867C25.9964 9.94023 25.8949 10.0104 25.5713 10.3406ZM5.87384 11.0848C5.81389 11.1829 5.84087 11.2028 6.78606 11.7556C7.53551 12.1939 7.81882 12.2959 7.81793 12.127C7.81761 12.0792 6.03465 11.0149 5.95478 11.0149C5.93378 11.0149 5.89738 11.0463 5.87384 11.0848ZM29.1123 11.5284C28.6266 11.8096 28.2159 12.0531 28.1996 12.0695C28.1834 12.0858 28.1947 12.1436 28.2247 12.1978C28.27 12.2796 28.4364 12.2044 29.201 11.7566C30.0376 11.2667 30.2417 11.0956 30.0591 11.0375C30.0241 11.0263 29.598 11.2472 29.1123 11.5284ZM11.0273 11.151C11.0018 11.1927 11.3258 11.5685 11.8031 12.0505C12.4401 12.6937 12.644 12.8646 12.7182 12.8171C12.7946 12.7682 12.6489 12.5889 11.9873 11.9176C11.5328 11.4565 11.1407 11.0792 11.116 11.0792C11.0913 11.0792 11.0514 11.1115 11.0273 11.151ZM24.015 11.9145C23.3605 12.5779 23.2067 12.7666 23.2691 12.8297C23.3315 12.8928 23.5181 12.7373 24.1741 12.0754C24.9453 11.2971 25.054 11.151 24.8999 11.0991C24.8667 11.0879 24.4685 11.4548 24.015 11.9145ZM16.9833 13.7353C16.4416 14.6637 15.2854 16.6396 14.4139 18.1262C13.5424 19.6129 12.8002 20.8934 12.7646 20.9718C12.709 21.094 12.7921 21.2722 13.3477 22.2232L13.9956 23.3322L13.3255 24.0121L12.6553 24.6919L15.2802 27.3459C16.7239 28.8057 17.9478 30 18 30C18.0522 30 19.2761 28.8057 20.7198 27.3459L23.3447 24.6919L22.6715 24.009L21.9982 23.326L22.647 22.2228C23.0038 21.616 23.2804 21.0793 23.2617 21.03C23.243 20.9807 22.3046 19.366 21.1762 17.4417C18.5301 12.9291 18.323 12.5745 18.1644 12.2864C18.0914 12.154 18.0175 12.046 18 12.0465C17.9825 12.047 17.525 12.807 16.9833 13.7353ZM8.10665 12.3629C8.08386 12.4002 8.08145 12.4573 8.10136 12.4898C8.16583 12.5954 9.0372 13.0756 9.09676 13.0384C9.23148 12.9542 9.12502 12.8338 8.70158 12.5916C8.15208 12.2772 8.15768 12.2794 8.10665 12.3629ZM27.2677 12.5992C26.8309 12.8566 26.779 12.9059 26.8595 12.9872C26.9398 13.0686 27.0115 13.0446 27.4235 12.7986C27.8552 12.5406 27.9963 12.377 27.8318 12.3246C27.7968 12.3136 27.543 12.4371 27.2677 12.5992ZM17.9154 12.5863C17.8942 12.642 16.771 14.5751 15.4193 16.8821L12.9617 21.0767L13.0898 21.3069C13.1603 21.4335 14.292 23.3709 15.6046 25.6122C17.9066 29.5428 17.9946 29.6819 18.0855 29.5379C18.1373 29.4558 19.1022 27.8103 20.2298 25.8812C21.3573 23.9521 22.4479 22.0901 22.6535 21.7433C22.8591 21.3965 23.0273 21.1026 23.0273 21.0901C23.0273 21.0776 22.5457 20.2463 21.957 19.2428C21.3684 18.2394 20.2611 16.3468 19.4964 15.0371C18.7318 13.7275 18.0718 12.6175 18.0299 12.5705C17.9671 12.5 17.9471 12.5028 17.9154 12.5863ZM9.46662 13.1783C9.425 13.229 9.40222 13.2788 9.4159 13.289C9.42965 13.2992 9.89699 13.5743 10.4544 13.9004C11.2048 14.3394 11.4812 14.472 11.5193 14.4112C11.5476 14.3661 11.5706 14.3147 11.5705 14.297C11.5704 14.2793 11.114 13.9996 10.5563 13.6754C9.70245 13.1791 9.53032 13.1006 9.46662 13.1783ZM25.4455 13.669C24.903 13.9873 24.4493 14.2566 24.4373 14.2676C24.4254 14.2784 24.4404 14.3322 24.4707 14.3869C24.5167 14.47 24.6894 14.3909 25.5106 13.9104C26.0523 13.5936 26.5241 13.3227 26.5591 13.3086C26.5954 13.2938 26.5818 13.2415 26.5273 13.1865C26.4425 13.101 26.3214 13.155 25.4455 13.669ZM15.7091 17.1391C14.4666 19.2659 13.4412 21.0292 13.4304 21.0575C13.4196 21.0858 13.7231 21.6396 14.1048 22.2884C14.9239 23.6804 16.424 26.2418 17.3207 27.7797C18.0304 28.9966 18.0082 28.963 18.0412 28.8738C18.0543 28.8384 19.0835 27.0718 20.3281 24.948C22.0053 22.0862 22.5761 21.0617 22.5329 20.9901C22.0661 20.2161 18.1181 13.4468 18.0894 13.3712C18.0678 13.3141 18.0316 13.2684 18.0091 13.2697C17.9866 13.2711 16.9516 15.0122 15.7091 17.1391ZM16.8555 15.6646C16.2503 16.6999 15.2962 18.3281 14.7351 19.2826C14.1741 20.2372 13.7152 21.0504 13.7152 21.0897C13.7152 21.1456 14.5043 22.5338 14.6081 22.6605C14.6214 22.6766 15.3899 21.9238 16.3161 20.9877L18 19.2856L19.6839 20.9877C20.6101 21.9238 21.3792 22.6766 21.3931 22.6605C21.5549 22.4725 22.3063 21.0704 22.2745 21.0159C20.0476 17.2003 18.0257 13.7822 17.9955 13.7822C17.9737 13.7822 17.4607 14.6293 16.8555 15.6646ZM4.47466 14.4944C4.45156 14.5321 4.44654 14.577 4.46346 14.5942C4.48039 14.6113 4.91999 14.7403 5.44028 14.8809C5.96064 15.0214 6.42327 15.1498 6.46833 15.1662C6.55017 15.1958 6.65389 15.0288 6.59229 14.9665C6.55354 14.9273 4.70166 14.4271 4.59239 14.4263C4.55071 14.426 4.4977 14.4566 4.47466 14.4944ZM31.0455 14.4989C30.923 14.5327 30.4992 14.6496 30.1037 14.7587C29.5328 14.9161 29.3891 14.9785 29.406 15.0614C29.4314 15.1856 29.4655 15.1812 30.3455 14.9393C30.713 14.8383 31.1342 14.7241 31.2814 14.6855C31.4759 14.6345 31.5394 14.5893 31.5132 14.5205C31.4728 14.4141 31.3697 14.4093 31.0455 14.4989ZM6.9687 15.1638C6.92307 15.2839 6.92581 15.2853 7.52603 15.4507C7.87469 15.5468 8.04969 15.5688 8.09557 15.5224C8.19847 15.4184 8.08685 15.3521 7.55956 15.2043C6.98652 15.0436 7.01356 15.0454 6.9687 15.1638ZM28.3568 15.2193C27.9143 15.3422 27.7663 15.4513 27.9156 15.5446C27.9635 15.5746 28.9159 15.3528 29.0208 15.2872C29.0892 15.2445 29.0074 15.0682 28.9227 15.0758C28.8827 15.0794 28.6281 15.144 28.3568 15.2193ZM8.49241 15.5593C8.46994 15.6185 8.46218 15.6777 8.47523 15.6909C8.53855 15.7549 10.6585 16.2902 10.7334 16.2611C10.9469 16.1783 10.7021 16.0618 9.78792 15.811C9.24707 15.6627 8.74352 15.5212 8.66887 15.4964C8.57253 15.4646 8.52143 15.4828 8.49241 15.5593ZM26.3402 15.7738C25.3045 16.0554 25.0841 16.1534 25.2516 16.258C25.325 16.3039 27.5461 15.7206 27.5445 15.6559C27.54 15.473 27.3933 15.4874 26.3402 15.7738ZM4 18.1584C4 18.2821 4.04245 18.2871 5.08182 18.2871C6.12119 18.2871 6.16364 18.2821 6.16364 18.1584C6.16364 18.0347 6.12119 18.0297 5.08182 18.0297C4.04245 18.0297 4 18.0347 4 18.1584ZM6.59229 18.0682C6.57136 18.0894 6.56964 18.1473 6.58847 18.1969C6.61431 18.2649 6.76182 18.2871 7.18863 18.2871C7.7121 18.2871 7.75455 18.2775 7.75455 18.1584C7.75455 18.0394 7.7121 18.0297 7.19245 18.0297C6.88324 18.0297 6.61317 18.047 6.59229 18.0682ZM8.13636 18.1584C8.13636 18.2869 8.16455 18.2896 9.32955 18.2725C10.34 18.2577 10.5227 18.2402 10.5227 18.1584C10.5227 18.0767 10.34 18.0592 9.32955 18.0444C8.16455 18.0273 8.13636 18.03 8.13636 18.1584ZM25.4879 18.0726C25.4645 18.0962 25.4455 18.1541 25.4455 18.2013C25.4455 18.2698 25.6894 18.2871 26.6545 18.2871C27.8212 18.2871 27.8636 18.2826 27.8636 18.1584C27.8636 18.0344 27.8212 18.0297 26.697 18.0297C26.0553 18.0297 25.5112 18.049 25.4879 18.0726ZM28.2455 18.1584C28.2455 18.2776 28.2879 18.2871 28.8182 18.2871C29.3485 18.2871 29.3909 18.2776 29.3909 18.1584C29.3909 18.0392 29.3485 18.0297 28.8182 18.0297C28.2879 18.0297 28.2455 18.0392 28.2455 18.1584ZM29.8045 18.0941C29.7058 18.2555 29.8886 18.2871 30.9219 18.2871C31.9576 18.2871 32 18.282 32 18.1584C32 18.0348 31.9576 18.0297 30.9219 18.0297C30.2719 18.0297 29.8283 18.0553 29.8045 18.0941ZM16.3581 21.267C15.1446 22.4949 14.7591 22.9221 14.7903 23.0046C14.8132 23.0647 14.85 23.1139 14.8722 23.1139C14.8945 23.1139 15.6072 22.4119 16.4561 21.554L17.9994 19.9941L19.5389 21.5558C20.9259 22.9629 21.088 23.1076 21.1764 23.0182C21.2648 22.9288 21.1141 22.7567 19.6537 21.2788C18.7622 20.3767 18.018 19.6386 18 19.6386C17.982 19.6386 17.2431 20.3714 16.3581 21.267ZM9.53636 20.3247C8.95886 20.4843 8.47656 20.6247 8.4646 20.6367C8.45264 20.6488 8.46696 20.7006 8.49642 20.7517C8.54154 20.8301 8.71533 20.8003 9.6 20.5626C10.8848 20.2173 10.8149 20.2436 10.7694 20.1237C10.7202 19.9941 10.7502 19.9892 9.53636 20.3247ZM25.2236 20.0878C25.1986 20.1286 25.1975 20.1818 25.2211 20.206C25.2448 20.2302 25.7559 20.3848 26.357 20.5496C27.3992 20.8355 27.5397 20.8488 27.5445 20.6625C27.5453 20.6319 26.761 20.4072 25.4049 20.0494C25.3301 20.0297 25.2485 20.047 25.2236 20.0878ZM16.5101 21.8813C15.7089 22.6901 15.0583 23.3779 15.0643 23.4098C15.0735 23.4591 15.7241 24.5823 17.605 27.7958C17.7966 28.1232 17.9721 28.3911 17.995 28.3911C18.0441 28.3911 20.9273 23.4788 20.9273 23.3952C20.9273 23.3365 18.0563 20.4109 17.9987 20.4109C17.9811 20.4109 17.3112 21.0726 16.5101 21.8813ZM7.5 20.8719C6.97156 21.0123 6.90882 21.0488 6.9841 21.172C7.05894 21.2945 8.14858 21.0048 8.12256 20.8693C8.09615 20.7316 8.02653 20.7319 7.5 20.8719ZM18.1273 24.3474C18.1273 26.3354 18.1383 27.95 18.1517 27.9353C18.1651 27.9205 18.5985 27.1844 19.1147 26.2995C19.6309 25.4146 20.2213 24.4105 20.4266 24.0681C20.632 23.7258 20.8 23.4246 20.8 23.3988C20.8 23.3364 18.2367 20.7327 18.1752 20.7327C18.1488 20.7327 18.1273 22.3593 18.1273 24.3474ZM27.8873 20.8275C27.8656 20.8846 27.8586 20.9404 27.8717 20.9514C27.8848 20.9625 28.1356 21.0361 28.4292 21.1151C28.8635 21.2319 28.9727 21.2427 29.0152 21.1732C29.0872 21.0554 29.0379 21.0254 28.5636 20.8988C28.3361 20.838 28.0997 20.7738 28.0383 20.7561C27.9721 20.7369 27.9107 20.766 27.8873 20.8275ZM29.4095 21.2271C29.3906 21.2768 29.3898 21.3322 29.4076 21.3503C29.4255 21.3683 29.8944 21.5086 30.4496 21.6619C31.3447 21.909 31.4636 21.9286 31.4988 21.8354C31.5207 21.7775 31.5316 21.7219 31.523 21.7117C31.5144 21.7016 31.043 21.568 30.4756 21.415C29.6392 21.1895 29.4372 21.1539 29.4095 21.2271ZM5.40834 21.4432C4.90548 21.5799 4.48243 21.7036 4.46823 21.7179C4.45404 21.7322 4.45895 21.7874 4.47906 21.8404C4.51565 21.9369 4.7119 21.8953 6.33864 21.446C6.62767 21.3661 6.72045 21.1787 6.46591 21.1889C6.38719 21.1921 5.91125 21.3065 5.40834 21.4432ZM13.56 24.0966C13.272 24.3894 13.0364 24.6575 13.0364 24.6923C13.0364 24.7272 14.0141 25.7402 15.209 26.9435C16.5427 28.2863 17.3244 29.0318 17.2332 28.8738C17.1516 28.7322 17.0212 28.515 16.9434 28.3911C16.8657 28.2672 16.0408 27.3986 15.1101 26.4608C14.1796 25.5231 13.4182 24.7274 13.4182 24.6927C13.4182 24.6579 13.6055 24.4386 13.8344 24.2053C14.132 23.902 14.2388 23.7503 14.2094 23.6728C14.1867 23.6131 14.1492 23.5644 14.1259 23.5644C14.1026 23.5644 13.8479 23.8039 13.56 24.0966ZM21.8086 23.6287C21.8034 23.6641 21.7962 23.7197 21.7927 23.7522C21.7892 23.7848 21.9456 23.9802 22.1404 24.1866C22.3351 24.393 22.5174 24.6008 22.5456 24.6484C22.5817 24.7095 22.0661 25.277 20.7915 26.5791C19.4521 27.9475 18.9392 28.5146 18.8036 28.7772C18.6408 29.0926 18.8576 28.8927 20.7922 26.9435C21.9865 25.7402 22.9636 24.7259 22.9636 24.6895C22.9636 24.6154 21.9371 23.5644 21.8646 23.5644C21.8391 23.5644 21.8139 23.5933 21.8086 23.6287ZM14.0682 24.3551L13.7408 24.6906L14.9897 25.962C15.6766 26.6613 16.2452 27.226 16.2532 27.217C16.2612 27.2079 15.8465 26.4848 15.3317 25.6101L14.3956 24.0196L14.0682 24.3551ZM20.8141 25.3503C20.3862 26.0847 19.961 26.816 19.8691 26.9752C19.7429 27.1942 20.0145 26.9511 20.9822 25.979L22.2622 24.6932L21.931 24.354C21.7489 24.1675 21.5959 24.0149 21.5959 24.0149C21.5959 24.0149 21.2419 24.6157 20.8141 25.3503Z"/>
</mask>
<path fill-rule="evenodd" clip-rule="evenodd" d="M17.8871 5.11015C17.9018 6.04621 17.9195 6.2203 18 6.2203C18.0805 6.2203 18.0982 6.04621 18.1129 5.11015C18.1298 4.02864 18.1269 4 18 4C17.8731 4 17.8702 4.02864 17.8871 5.11015ZM14.334 4.49973C14.2849 4.53274 14.3457 4.8553 14.5347 5.56521C14.6839 6.12518 14.8218 6.59936 14.8412 6.61892C14.8605 6.63849 14.918 6.63836 14.9688 6.61866C15.0486 6.58764 15.0494 6.54028 14.9749 6.27281C14.9274 6.10233 14.7976 5.62255 14.6864 5.20668C14.5752 4.79081 14.4662 4.45095 14.4443 4.45146C14.4224 4.45204 14.3729 4.47373 14.334 4.49973ZM21.4324 4.72671C21.156 5.78055 20.9833 6.42527 20.9584 6.49626C20.9294 6.57908 21.0947 6.68379 21.1562 6.62162C21.1942 6.58314 21.6896 4.71062 21.6903 4.60218C21.6907 4.5617 21.6487 4.51228 21.5972 4.49226C21.5293 4.46588 21.4839 4.53036 21.4324 4.72671ZM10.9688 5.92966C10.9262 5.9993 11.9299 7.86229 12.0088 7.86042C12.2088 7.85559 12.1554 7.69631 11.6651 6.8331C11.374 6.32069 11.1079 5.89195 11.0738 5.8805C11.0396 5.86898 10.9924 5.89111 10.9688 5.92966ZM24.3377 6.81341C23.872 7.62198 23.8073 7.76897 23.8946 7.81846C24.0149 7.88649 23.9616 7.96088 24.5899 6.84784C25.0259 6.0755 25.1 5.86634 24.9378 5.86634C24.9078 5.86634 24.6377 6.29251 24.3377 6.81341ZM17.8727 7.21782C17.8727 7.7541 17.8821 7.79703 18 7.79703C18.1179 7.79703 18.1273 7.7541 18.1273 7.21782C18.1273 6.68154 18.1179 6.63861 18 6.63861C17.8821 6.63861 17.8727 6.68154 17.8727 7.21782ZM15.0202 7.01787C14.953 7.05976 14.9649 7.17812 15.0812 7.62655C15.2122 8.13181 15.318 8.29013 15.4167 8.12859C15.4518 8.07125 15.2114 7.09007 15.143 7.01137C15.1213 6.98627 15.066 6.98916 15.0202 7.01787ZM20.6856 7.52352C20.515 8.19295 20.5155 8.18317 20.6573 8.18317C20.8072 8.18317 21.1028 7.09554 20.9753 7.01362C20.9313 6.98543 20.8805 6.96194 20.8623 6.96136C20.844 6.96085 20.7646 7.21383 20.6856 7.52352ZM8.08138 8.16386C8.0243 8.18684 8.26281 8.47071 8.77788 8.9929C9.40063 9.62417 9.57906 9.772 9.64817 9.71402C9.71817 9.65526 9.58893 9.49282 8.98445 8.87996C8.57157 8.46132 8.21903 8.12113 8.20102 8.1239C8.18295 8.12666 8.12911 8.14468 8.08138 8.16386ZM12.2406 8.18368C12.188 8.26979 12.7212 9.21287 12.8225 9.21287C12.9843 9.21287 12.9569 9.09819 12.6799 8.61468C12.4025 8.13078 12.3215 8.0513 12.2406 8.18368ZM23.5502 8.20306C23.5176 8.24521 23.3842 8.47516 23.2537 8.71405C23.0499 9.08719 23.031 9.15399 23.1201 9.18855C23.177 9.21068 23.2326 9.21796 23.2434 9.20476C23.2912 9.14633 23.7909 8.25415 23.7909 8.22712C23.7909 8.15286 23.6034 8.13413 23.5502 8.20306ZM27.0156 8.87996C26.411 9.49295 26.2818 9.65526 26.3519 9.71402C26.421 9.77206 26.5931 9.63054 27.1911 9.02424C27.8466 8.35957 28.0115 8.11881 27.8111 8.11881C27.7864 8.11881 27.4284 8.46132 27.0156 8.87996ZM17.8727 9.41064C17.8727 10.5451 17.8812 10.6365 17.9841 10.6165C18.0847 10.597 18.0971 10.4782 18.1128 9.38902C18.1296 8.21593 18.1266 8.18317 18.0014 8.18317C17.8767 8.18317 17.8727 8.22159 17.8727 9.41064ZM15.4128 8.55425C15.3598 8.58842 15.423 8.91535 15.639 9.7236C15.9167 10.7629 16.0172 10.9945 16.1185 10.8287C16.1614 10.7585 15.584 8.50431 15.5235 8.50592C15.5031 8.5065 15.4533 8.52825 15.4128 8.55425ZM20.4182 8.53648C20.4182 8.5538 20.2884 9.05166 20.1297 9.64277C19.8528 10.6738 19.8227 10.926 19.9825 10.8721C20.095 10.8342 20.6725 8.6123 20.585 8.55418C20.5026 8.49961 20.4182 8.49066 20.4182 8.53648ZM13.053 9.54804C13.0033 9.60982 13.1325 9.887 13.5558 10.6271C13.8692 11.1748 14.1361 11.6336 14.1489 11.6466C14.1618 11.6596 14.2159 11.6455 14.2692 11.6154C14.3492 11.5701 14.2682 11.3888 13.8031 10.5733C13.168 9.46 13.1471 9.4313 13.053 9.54804ZM22.2149 10.5191C21.7804 11.2808 21.6464 11.5666 21.7058 11.6047C21.7501 11.6332 21.8007 11.6564 21.8182 11.6564C21.8357 11.6564 22.1135 11.1938 22.4355 10.6283C22.9472 9.72952 23.0073 9.59283 22.9127 9.54257C22.8215 9.49404 22.7124 9.64664 22.2149 10.5191ZM9.93155 10.001C9.82597 10.1297 10.6424 10.9517 10.7588 10.834C10.8208 10.7713 10.7504 10.6671 10.4207 10.3336C10.0819 9.991 9.99066 9.92897 9.93155 10.001ZM25.5713 10.3406C25.2489 10.6695 25.1804 10.7726 25.2425 10.8353C25.3044 10.898 25.4075 10.8268 25.7372 10.4933C26.076 10.1507 26.1374 10.0585 26.0661 9.99867C25.9964 9.94023 25.8949 10.0104 25.5713 10.3406ZM5.87384 11.0848C5.81389 11.1829 5.84087 11.2028 6.78606 11.7556C7.53551 12.1939 7.81882 12.2959 7.81793 12.127C7.81761 12.0792 6.03465 11.0149 5.95478 11.0149C5.93378 11.0149 5.89738 11.0463 5.87384 11.0848ZM29.1123 11.5284C28.6266 11.8096 28.2159 12.0531 28.1996 12.0695C28.1834 12.0858 28.1947 12.1436 28.2247 12.1978C28.27 12.2796 28.4364 12.2044 29.201 11.7566C30.0376 11.2667 30.2417 11.0956 30.0591 11.0375C30.0241 11.0263 29.598 11.2472 29.1123 11.5284ZM11.0273 11.151C11.0018 11.1927 11.3258 11.5685 11.8031 12.0505C12.4401 12.6937 12.644 12.8646 12.7182 12.8171C12.7946 12.7682 12.6489 12.5889 11.9873 11.9176C11.5328 11.4565 11.1407 11.0792 11.116 11.0792C11.0913 11.0792 11.0514 11.1115 11.0273 11.151ZM24.015 11.9145C23.3605 12.5779 23.2067 12.7666 23.2691 12.8297C23.3315 12.8928 23.5181 12.7373 24.1741 12.0754C24.9453 11.2971 25.054 11.151 24.8999 11.0991C24.8667 11.0879 24.4685 11.4548 24.015 11.9145ZM16.9833 13.7353C16.4416 14.6637 15.2854 16.6396 14.4139 18.1262C13.5424 19.6129 12.8002 20.8934 12.7646 20.9718C12.709 21.094 12.7921 21.2722 13.3477 22.2232L13.9956 23.3322L13.3255 24.0121L12.6553 24.6919L15.2802 27.3459C16.7239 28.8057 17.9478 30 18 30C18.0522 30 19.2761 28.8057 20.7198 27.3459L23.3447 24.6919L22.6715 24.009L21.9982 23.326L22.647 22.2228C23.0038 21.616 23.2804 21.0793 23.2617 21.03C23.243 20.9807 22.3046 19.366 21.1762 17.4417C18.5301 12.9291 18.323 12.5745 18.1644 12.2864C18.0914 12.154 18.0175 12.046 18 12.0465C17.9825 12.047 17.525 12.807 16.9833 13.7353ZM8.10665 12.3629C8.08386 12.4002 8.08145 12.4573 8.10136 12.4898C8.16583 12.5954 9.0372 13.0756 9.09676 13.0384C9.23148 12.9542 9.12502 12.8338 8.70158 12.5916C8.15208 12.2772 8.15768 12.2794 8.10665 12.3629ZM27.2677 12.5992C26.8309 12.8566 26.779 12.9059 26.8595 12.9872C26.9398 13.0686 27.0115 13.0446 27.4235 12.7986C27.8552 12.5406 27.9963 12.377 27.8318 12.3246C27.7968 12.3136 27.543 12.4371 27.2677 12.5992ZM17.9154 12.5863C17.8942 12.642 16.771 14.5751 15.4193 16.8821L12.9617 21.0767L13.0898 21.3069C13.1603 21.4335 14.292 23.3709 15.6046 25.6122C17.9066 29.5428 17.9946 29.6819 18.0855 29.5379C18.1373 29.4558 19.1022 27.8103 20.2298 25.8812C21.3573 23.9521 22.4479 22.0901 22.6535 21.7433C22.8591 21.3965 23.0273 21.1026 23.0273 21.0901C23.0273 21.0776 22.5457 20.2463 21.957 19.2428C21.3684 18.2394 20.2611 16.3468 19.4964 15.0371C18.7318 13.7275 18.0718 12.6175 18.0299 12.5705C17.9671 12.5 17.9471 12.5028 17.9154 12.5863ZM9.46662 13.1783C9.425 13.229 9.40222 13.2788 9.4159 13.289C9.42965 13.2992 9.89699 13.5743 10.4544 13.9004C11.2048 14.3394 11.4812 14.472 11.5193 14.4112C11.5476 14.3661 11.5706 14.3147 11.5705 14.297C11.5704 14.2793 11.114 13.9996 10.5563 13.6754C9.70245 13.1791 9.53032 13.1006 9.46662 13.1783ZM25.4455 13.669C24.903 13.9873 24.4493 14.2566 24.4373 14.2676C24.4254 14.2784 24.4404 14.3322 24.4707 14.3869C24.5167 14.47 24.6894 14.3909 25.5106 13.9104C26.0523 13.5936 26.5241 13.3227 26.5591 13.3086C26.5954 13.2938 26.5818 13.2415 26.5273 13.1865C26.4425 13.101 26.3214 13.155 25.4455 13.669ZM15.7091 17.1391C14.4666 19.2659 13.4412 21.0292 13.4304 21.0575C13.4196 21.0858 13.7231 21.6396 14.1048 22.2884C14.9239 23.6804 16.424 26.2418 17.3207 27.7797C18.0304 28.9966 18.0082 28.963 18.0412 28.8738C18.0543 28.8384 19.0835 27.0718 20.3281 24.948C22.0053 22.0862 22.5761 21.0617 22.5329 20.9901C22.0661 20.2161 18.1181 13.4468 18.0894 13.3712C18.0678 13.3141 18.0316 13.2684 18.0091 13.2697C17.9866 13.2711 16.9516 15.0122 15.7091 17.1391ZM16.8555 15.6646C16.2503 16.6999 15.2962 18.3281 14.7351 19.2826C14.1741 20.2372 13.7152 21.0504 13.7152 21.0897C13.7152 21.1456 14.5043 22.5338 14.6081 22.6605C14.6214 22.6766 15.3899 21.9238 16.3161 20.9877L18 19.2856L19.6839 20.9877C20.6101 21.9238 21.3792 22.6766 21.3931 22.6605C21.5549 22.4725 22.3063 21.0704 22.2745 21.0159C20.0476 17.2003 18.0257 13.7822 17.9955 13.7822C17.9737 13.7822 17.4607 14.6293 16.8555 15.6646ZM4.47466 14.4944C4.45156 14.5321 4.44654 14.577 4.46346 14.5942C4.48039 14.6113 4.91999 14.7403 5.44028 14.8809C5.96064 15.0214 6.42327 15.1498 6.46833 15.1662C6.55017 15.1958 6.65389 15.0288 6.59229 14.9665C6.55354 14.9273 4.70166 14.4271 4.59239 14.4263C4.55071 14.426 4.4977 14.4566 4.47466 14.4944ZM31.0455 14.4989C30.923 14.5327 30.4992 14.6496 30.1037 14.7587C29.5328 14.9161 29.3891 14.9785 29.406 15.0614C29.4314 15.1856 29.4655 15.1812 30.3455 14.9393C30.713 14.8383 31.1342 14.7241 31.2814 14.6855C31.4759 14.6345 31.5394 14.5893 31.5132 14.5205C31.4728 14.4141 31.3697 14.4093 31.0455 14.4989ZM6.9687 15.1638C6.92307 15.2839 6.92581 15.2853 7.52603 15.4507C7.87469 15.5468 8.04969 15.5688 8.09557 15.5224C8.19847 15.4184 8.08685 15.3521 7.55956 15.2043C6.98652 15.0436 7.01356 15.0454 6.9687 15.1638ZM28.3568 15.2193C27.9143 15.3422 27.7663 15.4513 27.9156 15.5446C27.9635 15.5746 28.9159 15.3528 29.0208 15.2872C29.0892 15.2445 29.0074 15.0682 28.9227 15.0758C28.8827 15.0794 28.6281 15.144 28.3568 15.2193ZM8.49241 15.5593C8.46994 15.6185 8.46218 15.6777 8.47523 15.6909C8.53855 15.7549 10.6585 16.2902 10.7334 16.2611C10.9469 16.1783 10.7021 16.0618 9.78792 15.811C9.24707 15.6627 8.74352 15.5212 8.66887 15.4964C8.57253 15.4646 8.52143 15.4828 8.49241 15.5593ZM26.3402 15.7738C25.3045 16.0554 25.0841 16.1534 25.2516 16.258C25.325 16.3039 27.5461 15.7206 27.5445 15.6559C27.54 15.473 27.3933 15.4874 26.3402 15.7738ZM4 18.1584C4 18.2821 4.04245 18.2871 5.08182 18.2871C6.12119 18.2871 6.16364 18.2821 6.16364 18.1584C6.16364 18.0347 6.12119 18.0297 5.08182 18.0297C4.04245 18.0297 4 18.0347 4 18.1584ZM6.59229 18.0682C6.57136 18.0894 6.56964 18.1473 6.58847 18.1969C6.61431 18.2649 6.76182 18.2871 7.18863 18.2871C7.7121 18.2871 7.75455 18.2775 7.75455 18.1584C7.75455 18.0394 7.7121 18.0297 7.19245 18.0297C6.88324 18.0297 6.61317 18.047 6.59229 18.0682ZM8.13636 18.1584C8.13636 18.2869 8.16455 18.2896 9.32955 18.2725C10.34 18.2577 10.5227 18.2402 10.5227 18.1584C10.5227 18.0767 10.34 18.0592 9.32955 18.0444C8.16455 18.0273 8.13636 18.03 8.13636 18.1584ZM25.4879 18.0726C25.4645 18.0962 25.4455 18.1541 25.4455 18.2013C25.4455 18.2698 25.6894 18.2871 26.6545 18.2871C27.8212 18.2871 27.8636 18.2826 27.8636 18.1584C27.8636 18.0344 27.8212 18.0297 26.697 18.0297C26.0553 18.0297 25.5112 18.049 25.4879 18.0726ZM28.2455 18.1584C28.2455 18.2776 28.2879 18.2871 28.8182 18.2871C29.3485 18.2871 29.3909 18.2776 29.3909 18.1584C29.3909 18.0392 29.3485 18.0297 28.8182 18.0297C28.2879 18.0297 28.2455 18.0392 28.2455 18.1584ZM29.8045 18.0941C29.7058 18.2555 29.8886 18.2871 30.9219 18.2871C31.9576 18.2871 32 18.282 32 18.1584C32 18.0348 31.9576 18.0297 30.9219 18.0297C30.2719 18.0297 29.8283 18.0553 29.8045 18.0941ZM16.3581 21.267C15.1446 22.4949 14.7591 22.9221 14.7903 23.0046C14.8132 23.0647 14.85 23.1139 14.8722 23.1139C14.8945 23.1139 15.6072 22.4119 16.4561 21.554L17.9994 19.9941L19.5389 21.5558C20.9259 22.9629 21.088 23.1076 21.1764 23.0182C21.2648 22.9288 21.1141 22.7567 19.6537 21.2788C18.7622 20.3767 18.018 19.6386 18 19.6386C17.982 19.6386 17.2431 20.3714 16.3581 21.267ZM9.53636 20.3247C8.95886 20.4843 8.47656 20.6247 8.4646 20.6367C8.45264 20.6488 8.46696 20.7006 8.49642 20.7517C8.54154 20.8301 8.71533 20.8003 9.6 20.5626C10.8848 20.2173 10.8149 20.2436 10.7694 20.1237C10.7202 19.9941 10.7502 19.9892 9.53636 20.3247ZM25.2236 20.0878C25.1986 20.1286 25.1975 20.1818 25.2211 20.206C25.2448 20.2302 25.7559 20.3848 26.357 20.5496C27.3992 20.8355 27.5397 20.8488 27.5445 20.6625C27.5453 20.6319 26.761 20.4072 25.4049 20.0494C25.3301 20.0297 25.2485 20.047 25.2236 20.0878ZM16.5101 21.8813C15.7089 22.6901 15.0583 23.3779 15.0643 23.4098C15.0735 23.4591 15.7241 24.5823 17.605 27.7958C17.7966 28.1232 17.9721 28.3911 17.995 28.3911C18.0441 28.3911 20.9273 23.4788 20.9273 23.3952C20.9273 23.3365 18.0563 20.4109 17.9987 20.4109C17.9811 20.4109 17.3112 21.0726 16.5101 21.8813ZM7.5 20.8719C6.97156 21.0123 6.90882 21.0488 6.9841 21.172C7.05894 21.2945 8.14858 21.0048 8.12256 20.8693C8.09615 20.7316 8.02653 20.7319 7.5 20.8719ZM18.1273 24.3474C18.1273 26.3354 18.1383 27.95 18.1517 27.9353C18.1651 27.9205 18.5985 27.1844 19.1147 26.2995C19.6309 25.4146 20.2213 24.4105 20.4266 24.0681C20.632 23.7258 20.8 23.4246 20.8 23.3988C20.8 23.3364 18.2367 20.7327 18.1752 20.7327C18.1488 20.7327 18.1273 22.3593 18.1273 24.3474ZM27.8873 20.8275C27.8656 20.8846 27.8586 20.9404 27.8717 20.9514C27.8848 20.9625 28.1356 21.0361 28.4292 21.1151C28.8635 21.2319 28.9727 21.2427 29.0152 21.1732C29.0872 21.0554 29.0379 21.0254 28.5636 20.8988C28.3361 20.838 28.0997 20.7738 28.0383 20.7561C27.9721 20.7369 27.9107 20.766 27.8873 20.8275ZM29.4095 21.2271C29.3906 21.2768 29.3898 21.3322 29.4076 21.3503C29.4255 21.3683 29.8944 21.5086 30.4496 21.6619C31.3447 21.909 31.4636 21.9286 31.4988 21.8354C31.5207 21.7775 31.5316 21.7219 31.523 21.7117C31.5144 21.7016 31.043 21.568 30.4756 21.415C29.6392 21.1895 29.4372 21.1539 29.4095 21.2271ZM5.40834 21.4432C4.90548 21.5799 4.48243 21.7036 4.46823 21.7179C4.45404 21.7322 4.45895 21.7874 4.47906 21.8404C4.51565 21.9369 4.7119 21.8953 6.33864 21.446C6.62767 21.3661 6.72045 21.1787 6.46591 21.1889C6.38719 21.1921 5.91125 21.3065 5.40834 21.4432ZM13.56 24.0966C13.272 24.3894 13.0364 24.6575 13.0364 24.6923C13.0364 24.7272 14.0141 25.7402 15.209 26.9435C16.5427 28.2863 17.3244 29.0318 17.2332 28.8738C17.1516 28.7322 17.0212 28.515 16.9434 28.3911C16.8657 28.2672 16.0408 27.3986 15.1101 26.4608C14.1796 25.5231 13.4182 24.7274 13.4182 24.6927C13.4182 24.6579 13.6055 24.4386 13.8344 24.2053C14.132 23.902 14.2388 23.7503 14.2094 23.6728C14.1867 23.6131 14.1492 23.5644 14.1259 23.5644C14.1026 23.5644 13.8479 23.8039 13.56 24.0966ZM21.8086 23.6287C21.8034 23.6641 21.7962 23.7197 21.7927 23.7522C21.7892 23.7848 21.9456 23.9802 22.1404 24.1866C22.3351 24.393 22.5174 24.6008 22.5456 24.6484C22.5817 24.7095 22.0661 25.277 20.7915 26.5791C19.4521 27.9475 18.9392 28.5146 18.8036 28.7772C18.6408 29.0926 18.8576 28.8927 20.7922 26.9435C21.9865 25.7402 22.9636 24.7259 22.9636 24.6895C22.9636 24.6154 21.9371 23.5644 21.8646 23.5644C21.8391 23.5644 21.8139 23.5933 21.8086 23.6287ZM14.0682 24.3551L13.7408 24.6906L14.9897 25.962C15.6766 26.6613 16.2452 27.226 16.2532 27.217C16.2612 27.2079 15.8465 26.4848 15.3317 25.6101L14.3956 24.0196L14.0682 24.3551ZM20.8141 25.3503C20.3862 26.0847 19.961 26.816 19.8691 26.9752C19.7429 27.1942 20.0145 26.9511 20.9822 25.979L22.2622 24.6932L21.931 24.354C21.7489 24.1675 21.5959 24.0149 21.5959 24.0149C21.5959 24.0149 21.2419 24.6157 20.8141 25.3503Z" fill="#4C0213"/>
<path fill-rule="evenodd" clip-rule="evenodd" d="M17.8871 5.11015C17.9018 6.04621 17.9195 6.2203 18 6.2203C18.0805 6.2203 18.0982 6.04621 18.1129 5.11015C18.1298 4.02864 18.1269 4 18 4C17.8731 4 17.8702 4.02864 17.8871 5.11015ZM14.334 4.49973C14.2849 4.53274 14.3457 4.8553 14.5347 5.56521C14.6839 6.12518 14.8218 6.59936 14.8412 6.61892C14.8605 6.63849 14.918 6.63836 14.9688 6.61866C15.0486 6.58764 15.0494 6.54028 14.9749 6.27281C14.9274 6.10233 14.7976 5.62255 14.6864 5.20668C14.5752 4.79081 14.4662 4.45095 14.4443 4.45146C14.4224 4.45204 14.3729 4.47373 14.334 4.49973ZM21.4324 4.72671C21.156 5.78055 20.9833 6.42527 20.9584 6.49626C20.9294 6.57908 21.0947 6.68379 21.1562 6.62162C21.1942 6.58314 21.6896 4.71062 21.6903 4.60218C21.6907 4.5617 21.6487 4.51228 21.5972 4.49226C21.5293 4.46588 21.4839 4.53036 21.4324 4.72671ZM10.9688 5.92966C10.9262 5.9993 11.9299 7.86229 12.0088 7.86042C12.2088 7.85559 12.1554 7.69631 11.6651 6.8331C11.374 6.32069 11.1079 5.89195 11.0738 5.8805C11.0396 5.86898 10.9924 5.89111 10.9688 5.92966ZM24.3377 6.81341C23.872 7.62198 23.8073 7.76897 23.8946 7.81846C24.0149 7.88649 23.9616 7.96088 24.5899 6.84784C25.0259 6.0755 25.1 5.86634 24.9378 5.86634C24.9078 5.86634 24.6377 6.29251 24.3377 6.81341ZM17.8727 7.21782C17.8727 7.7541 17.8821 7.79703 18 7.79703C18.1179 7.79703 18.1273 7.7541 18.1273 7.21782C18.1273 6.68154 18.1179 6.63861 18 6.63861C17.8821 6.63861 17.8727 6.68154 17.8727 7.21782ZM15.0202 7.01787C14.953 7.05976 14.9649 7.17812 15.0812 7.62655C15.2122 8.13181 15.318 8.29013 15.4167 8.12859C15.4518 8.07125 15.2114 7.09007 15.143 7.01137C15.1213 6.98627 15.066 6.98916 15.0202 7.01787ZM20.6856 7.52352C20.515 8.19295 20.5155 8.18317 20.6573 8.18317C20.8072 8.18317 21.1028 7.09554 20.9753 7.01362C20.9313 6.98543 20.8805 6.96194 20.8623 6.96136C20.844 6.96085 20.7646 7.21383 20.6856 7.52352ZM8.08138 8.16386C8.0243 8.18684 8.26281 8.47071 8.77788 8.9929C9.40063 9.62417 9.57906 9.772 9.64817 9.71402C9.71817 9.65526 9.58893 9.49282 8.98445 8.87996C8.57157 8.46132 8.21903 8.12113 8.20102 8.1239C8.18295 8.12666 8.12911 8.14468 8.08138 8.16386ZM12.2406 8.18368C12.188 8.26979 12.7212 9.21287 12.8225 9.21287C12.9843 9.21287 12.9569 9.09819 12.6799 8.61468C12.4025 8.13078 12.3215 8.0513 12.2406 8.18368ZM23.5502 8.20306C23.5176 8.24521 23.3842 8.47516 23.2537 8.71405C23.0499 9.08719 23.031 9.15399 23.1201 9.18855C23.177 9.21068 23.2326 9.21796 23.2434 9.20476C23.2912 9.14633 23.7909 8.25415 23.7909 8.22712C23.7909 8.15286 23.6034 8.13413 23.5502 8.20306ZM27.0156 8.87996C26.411 9.49295 26.2818 9.65526 26.3519 9.71402C26.421 9.77206 26.5931 9.63054 27.1911 9.02424C27.8466 8.35957 28.0115 8.11881 27.8111 8.11881C27.7864 8.11881 27.4284 8.46132 27.0156 8.87996ZM17.8727 9.41064C17.8727 10.5451 17.8812 10.6365 17.9841 10.6165C18.0847 10.597 18.0971 10.4782 18.1128 9.38902C18.1296 8.21593 18.1266 8.18317 18.0014 8.18317C17.8767 8.18317 17.8727 8.22159 17.8727 9.41064ZM15.4128 8.55425C15.3598 8.58842 15.423 8.91535 15.639 9.7236C15.9167 10.7629 16.0172 10.9945 16.1185 10.8287C16.1614 10.7585 15.584 8.50431 15.5235 8.50592C15.5031 8.5065 15.4533 8.52825 15.4128 8.55425ZM20.4182 8.53648C20.4182 8.5538 20.2884 9.05166 20.1297 9.64277C19.8528 10.6738 19.8227 10.926 19.9825 10.8721C20.095 10.8342 20.6725 8.6123 20.585 8.55418C20.5026 8.49961 20.4182 8.49066 20.4182 8.53648ZM13.053 9.54804C13.0033 9.60982 13.1325 9.887 13.5558 10.6271C13.8692 11.1748 14.1361 11.6336 14.1489 11.6466C14.1618 11.6596 14.2159 11.6455 14.2692 11.6154C14.3492 11.5701 14.2682 11.3888 13.8031 10.5733C13.168 9.46 13.1471 9.4313 13.053 9.54804ZM22.2149 10.5191C21.7804 11.2808 21.6464 11.5666 21.7058 11.6047C21.7501 11.6332 21.8007 11.6564 21.8182 11.6564C21.8357 11.6564 22.1135 11.1938 22.4355 10.6283C22.9472 9.72952 23.0073 9.59283 22.9127 9.54257C22.8215 9.49404 22.7124 9.64664 22.2149 10.5191ZM9.93155 10.001C9.82597 10.1297 10.6424 10.9517 10.7588 10.834C10.8208 10.7713 10.7504 10.6671 10.4207 10.3336C10.0819 9.991 9.99066 9.92897 9.93155 10.001ZM25.5713 10.3406C25.2489 10.6695 25.1804 10.7726 25.2425 10.8353C25.3044 10.898 25.4075 10.8268 25.7372 10.4933C26.076 10.1507 26.1374 10.0585 26.0661 9.99867C25.9964 9.94023 25.8949 10.0104 25.5713 10.3406ZM5.87384 11.0848C5.81389 11.1829 5.84087 11.2028 6.78606 11.7556C7.53551 12.1939 7.81882 12.2959 7.81793 12.127C7.81761 12.0792 6.03465 11.0149 5.95478 11.0149C5.93378 11.0149 5.89738 11.0463 5.87384 11.0848ZM29.1123 11.5284C28.6266 11.8096 28.2159 12.0531 28.1996 12.0695C28.1834 12.0858 28.1947 12.1436 28.2247 12.1978C28.27 12.2796 28.4364 12.2044 29.201 11.7566C30.0376 11.2667 30.2417 11.0956 30.0591 11.0375C30.0241 11.0263 29.598 11.2472 29.1123 11.5284ZM11.0273 11.151C11.0018 11.1927 11.3258 11.5685 11.8031 12.0505C12.4401 12.6937 12.644 12.8646 12.7182 12.8171C12.7946 12.7682 12.6489 12.5889 11.9873 11.9176C11.5328 11.4565 11.1407 11.0792 11.116 11.0792C11.0913 11.0792 11.0514 11.1115 11.0273 11.151ZM24.015 11.9145C23.3605 12.5779 23.2067 12.7666 23.2691 12.8297C23.3315 12.8928 23.5181 12.7373 24.1741 12.0754C24.9453 11.2971 25.054 11.151 24.8999 11.0991C24.8667 11.0879 24.4685 11.4548 24.015 11.9145ZM16.9833 13.7353C16.4416 14.6637 15.2854 16.6396 14.4139 18.1262C13.5424 19.6129 12.8002 20.8934 12.7646 20.9718C12.709 21.094 12.7921 21.2722 13.3477 22.2232L13.9956 23.3322L13.3255 24.0121L12.6553 24.6919L15.2802 27.3459C16.7239 28.8057 17.9478 30 18 30C18.0522 30 19.2761 28.8057 20.7198 27.3459L23.3447 24.6919L22.6715 24.009L21.9982 23.326L22.647 22.2228C23.0038 21.616 23.2804 21.0793 23.2617 21.03C23.243 20.9807 22.3046 19.366 21.1762 17.4417C18.5301 12.9291 18.323 12.5745 18.1644 12.2864C18.0914 12.154 18.0175 12.046 18 12.0465C17.9825 12.047 17.525 12.807 16.9833 13.7353ZM8.10665 12.3629C8.08386 12.4002 8.08145 12.4573 8.10136 12.4898C8.16583 12.5954 9.0372 13.0756 9.09676 13.0384C9.23148 12.9542 9.12502 12.8338 8.70158 12.5916C8.15208 12.2772 8.15768 12.2794 8.10665 12.3629ZM27.2677 12.5992C26.8309 12.8566 26.779 12.9059 26.8595 12.9872C26.9398 13.0686 27.0115 13.0446 27.4235 12.7986C27.8552 12.5406 27.9963 12.377 27.8318 12.3246C27.7968 12.3136 27.543 12.4371 27.2677 12.5992ZM17.9154 12.5863C17.8942 12.642 16.771 14.5751 15.4193 16.8821L12.9617 21.0767L13.0898 21.3069C13.1603 21.4335 14.292 23.3709 15.6046 25.6122C17.9066 29.5428 17.9946 29.6819 18.0855 29.5379C18.1373 29.4558 19.1022 27.8103 20.2298 25.8812C21.3573 23.9521 22.4479 22.0901 22.6535 21.7433C22.8591 21.3965 23.0273 21.1026 23.0273 21.0901C23.0273 21.0776 22.5457 20.2463 21.957 19.2428C21.3684 18.2394 20.2611 16.3468 19.4964 15.0371C18.7318 13.7275 18.0718 12.6175 18.0299 12.5705C17.9671 12.5 17.9471 12.5028 17.9154 12.5863ZM9.46662 13.1783C9.425 13.229 9.40222 13.2788 9.4159 13.289C9.42965 13.2992 9.89699 13.5743 10.4544 13.9004C11.2048 14.3394 11.4812 14.472 11.5193 14.4112C11.5476 14.3661 11.5706 14.3147 11.5705 14.297C11.5704 14.2793 11.114 13.9996 10.5563 13.6754C9.70245 13.1791 9.53032 13.1006 9.46662 13.1783ZM25.4455 13.669C24.903 13.9873 24.4493 14.2566 24.4373 14.2676C24.4254 14.2784 24.4404 14.3322 24.4707 14.3869C24.5167 14.47 24.6894 14.3909 25.5106 13.9104C26.0523 13.5936 26.5241 13.3227 26.5591 13.3086C26.5954 13.2938 26.5818 13.2415 26.5273 13.1865C26.4425 13.101 26.3214 13.155 25.4455 13.669ZM15.7091 17.1391C14.4666 19.2659 13.4412 21.0292 13.4304 21.0575C13.4196 21.0858 13.7231 21.6396 14.1048 22.2884C14.9239 23.6804 16.424 26.2418 17.3207 27.7797C18.0304 28.9966 18.0082 28.963 18.0412 28.8738C18.0543 28.8384 19.0835 27.0718 20.3281 24.948C22.0053 22.0862 22.5761 21.0617 22.5329 20.9901C22.0661 20.2161 18.1181 13.4468 18.0894 13.3712C18.0678 13.3141 18.0316 13.2684 18.0091 13.2697C17.9866 13.2711 16.9516 15.0122 15.7091 17.1391ZM16.8555 15.6646C16.2503 16.6999 15.2962 18.3281 14.7351 19.2826C14.1741 20.2372 13.7152 21.0504 13.7152 21.0897C13.7152 21.1456 14.5043 22.5338 14.6081 22.6605C14.6214 22.6766 15.3899 21.9238 16.3161 20.9877L18 19.2856L19.6839 20.9877C20.6101 21.9238 21.3792 22.6766 21.3931 22.6605C21.5549 22.4725 22.3063 21.0704 22.2745 21.0159C20.0476 17.2003 18.0257 13.7822 17.9955 13.7822C17.9737 13.7822 17.4607 14.6293 16.8555 15.6646ZM4.47466 14.4944C4.45156 14.5321 4.44654 14.577 4.46346 14.5942C4.48039 14.6113 4.91999 14.7403 5.44028 14.8809C5.96064 15.0214 6.42327 15.1498 6.46833 15.1662C6.55017 15.1958 6.65389 15.0288 6.59229 14.9665C6.55354 14.9273 4.70166 14.4271 4.59239 14.4263C4.55071 14.426 4.4977 14.4566 4.47466 14.4944ZM31.0455 14.4989C30.923 14.5327 30.4992 14.6496 30.1037 14.7587C29.5328 14.9161 29.3891 14.9785 29.406 15.0614C29.4314 15.1856 29.4655 15.1812 30.3455 14.9393C30.713 14.8383 31.1342 14.7241 31.2814 14.6855C31.4759 14.6345 31.5394 14.5893 31.5132 14.5205C31.4728 14.4141 31.3697 14.4093 31.0455 14.4989ZM6.9687 15.1638C6.92307 15.2839 6.92581 15.2853 7.52603 15.4507C7.87469 15.5468 8.04969 15.5688 8.09557 15.5224C8.19847 15.4184 8.08685 15.3521 7.55956 15.2043C6.98652 15.0436 7.01356 15.0454 6.9687 15.1638ZM28.3568 15.2193C27.9143 15.3422 27.7663 15.4513 27.9156 15.5446C27.9635 15.5746 28.9159 15.3528 29.0208 15.2872C29.0892 15.2445 29.0074 15.0682 28.9227 15.0758C28.8827 15.0794 28.6281 15.144 28.3568 15.2193ZM8.49241 15.5593C8.46994 15.6185 8.46218 15.6777 8.47523 15.6909C8.53855 15.7549 10.6585 16.2902 10.7334 16.2611C10.9469 16.1783 10.7021 16.0618 9.78792 15.811C9.24707 15.6627 8.74352 15.5212 8.66887 15.4964C8.57253 15.4646 8.52143 15.4828 8.49241 15.5593ZM26.3402 15.7738C25.3045 16.0554 25.0841 16.1534 25.2516 16.258C25.325 16.3039 27.5461 15.7206 27.5445 15.6559C27.54 15.473 27.3933 15.4874 26.3402 15.7738ZM4 18.1584C4 18.2821 4.04245 18.2871 5.08182 18.2871C6.12119 18.2871 6.16364 18.2821 6.16364 18.1584C6.16364 18.0347 6.12119 18.0297 5.08182 18.0297C4.04245 18.0297 4 18.0347 4 18.1584ZM6.59229 18.0682C6.57136 18.0894 6.56964 18.1473 6.58847 18.1969C6.61431 18.2649 6.76182 18.2871 7.18863 18.2871C7.7121 18.2871 7.75455 18.2775 7.75455 18.1584C7.75455 18.0394 7.7121 18.0297 7.19245 18.0297C6.88324 18.0297 6.61317 18.047 6.59229 18.0682ZM8.13636 18.1584C8.13636 18.2869 8.16455 18.2896 9.32955 18.2725C10.34 18.2577 10.5227 18.2402 10.5227 18.1584C10.5227 18.0767 10.34 18.0592 9.32955 18.0444C8.16455 18.0273 8.13636 18.03 8.13636 18.1584ZM25.4879 18.0726C25.4645 18.0962 25.4455 18.1541 25.4455 18.2013C25.4455 18.2698 25.6894 18.2871 26.6545 18.2871C27.8212 18.2871 27.8636 18.2826 27.8636 18.1584C27.8636 18.0344 27.8212 18.0297 26.697 18.0297C26.0553 18.0297 25.5112 18.049 25.4879 18.0726ZM28.2455 18.1584C28.2455 18.2776 28.2879 18.2871 28.8182 18.2871C29.3485 18.2871 29.3909 18.2776 29.3909 18.1584C29.3909 18.0392 29.3485 18.0297 28.8182 18.0297C28.2879 18.0297 28.2455 18.0392 28.2455 18.1584ZM29.8045 18.0941C29.7058 18.2555 29.8886 18.2871 30.9219 18.2871C31.9576 18.2871 32 18.282 32 18.1584C32 18.0348 31.9576 18.0297 30.9219 18.0297C30.2719 18.0297 29.8283 18.0553 29.8045 18.0941ZM16.3581 21.267C15.1446 22.4949 14.7591 22.9221 14.7903 23.0046C14.8132 23.0647 14.85 23.1139 14.8722 23.1139C14.8945 23.1139 15.6072 22.4119 16.4561 21.554L17.9994 19.9941L19.5389 21.5558C20.9259 22.9629 21.088 23.1076 21.1764 23.0182C21.2648 22.9288 21.1141 22.7567 19.6537 21.2788C18.7622 20.3767 18.018 19.6386 18 19.6386C17.982 19.6386 17.2431 20.3714 16.3581 21.267ZM9.53636 20.3247C8.95886 20.4843 8.47656 20.6247 8.4646 20.6367C8.45264 20.6488 8.46696 20.7006 8.49642 20.7517C8.54154 20.8301 8.71533 20.8003 9.6 20.5626C10.8848 20.2173 10.8149 20.2436 10.7694 20.1237C10.7202 19.9941 10.7502 19.9892 9.53636 20.3247ZM25.2236 20.0878C25.1986 20.1286 25.1975 20.1818 25.2211 20.206C25.2448 20.2302 25.7559 20.3848 26.357 20.5496C27.3992 20.8355 27.5397 20.8488 27.5445 20.6625C27.5453 20.6319 26.761 20.4072 25.4049 20.0494C25.3301 20.0297 25.2485 20.047 25.2236 20.0878ZM16.5101 21.8813C15.7089 22.6901 15.0583 23.3779 15.0643 23.4098C15.0735 23.4591 15.7241 24.5823 17.605 27.7958C17.7966 28.1232 17.9721 28.3911 17.995 28.3911C18.0441 28.3911 20.9273 23.4788 20.9273 23.3952C20.9273 23.3365 18.0563 20.4109 17.9987 20.4109C17.9811 20.4109 17.3112 21.0726 16.5101 21.8813ZM7.5 20.8719C6.97156 21.0123 6.90882 21.0488 6.9841 21.172C7.05894 21.2945 8.14858 21.0048 8.12256 20.8693C8.09615 20.7316 8.02653 20.7319 7.5 20.8719ZM18.1273 24.3474C18.1273 26.3354 18.1383 27.95 18.1517 27.9353C18.1651 27.9205 18.5985 27.1844 19.1147 26.2995C19.6309 25.4146 20.2213 24.4105 20.4266 24.0681C20.632 23.7258 20.8 23.4246 20.8 23.3988C20.8 23.3364 18.2367 20.7327 18.1752 20.7327C18.1488 20.7327 18.1273 22.3593 18.1273 24.3474ZM27.8873 20.8275C27.8656 20.8846 27.8586 20.9404 27.8717 20.9514C27.8848 20.9625 28.1356 21.0361 28.4292 21.1151C28.8635 21.2319 28.9727 21.2427 29.0152 21.1732C29.0872 21.0554 29.0379 21.0254 28.5636 20.8988C28.3361 20.838 28.0997 20.7738 28.0383 20.7561C27.9721 20.7369 27.9107 20.766 27.8873 20.8275ZM29.4095 21.2271C29.3906 21.2768 29.3898 21.3322 29.4076 21.3503C29.4255 21.3683 29.8944 21.5086 30.4496 21.6619C31.3447 21.909 31.4636 21.9286 31.4988 21.8354C31.5207 21.7775 31.5316 21.7219 31.523 21.7117C31.5144 21.7016 31.043 21.568 30.4756 21.415C29.6392 21.1895 29.4372 21.1539 29.4095 21.2271ZM5.40834 21.4432C4.90548 21.5799 4.48243 21.7036 4.46823 21.7179C4.45404 21.7322 4.45895 21.7874 4.47906 21.8404C4.51565 21.9369 4.7119 21.8953 6.33864 21.446C6.62767 21.3661 6.72045 21.1787 6.46591 21.1889C6.38719 21.1921 5.91125 21.3065 5.40834 21.4432ZM13.56 24.0966C13.272 24.3894 13.0364 24.6575 13.0364 24.6923C13.0364 24.7272 14.0141 25.7402 15.209 26.9435C16.5427 28.2863 17.3244 29.0318 17.2332 28.8738C17.1516 28.7322 17.0212 28.515 16.9434 28.3911C16.8657 28.2672 16.0408 27.3986 15.1101 26.4608C14.1796 25.5231 13.4182 24.7274 13.4182 24.6927C13.4182 24.6579 13.6055 24.4386 13.8344 24.2053C14.132 23.902 14.2388 23.7503 14.2094 23.6728C14.1867 23.6131 14.1492 23.5644 14.1259 23.5644C14.1026 23.5644 13.8479 23.8039 13.56 24.0966ZM21.8086 23.6287C21.8034 23.6641 21.7962 23.7197 21.7927 23.7522C21.7892 23.7848 21.9456 23.9802 22.1404 24.1866C22.3351 24.393 22.5174 24.6008 22.5456 24.6484C22.5817 24.7095 22.0661 25.277 20.7915 26.5791C19.4521 27.9475 18.9392 28.5146 18.8036 28.7772C18.6408 29.0926 18.8576 28.8927 20.7922 26.9435C21.9865 25.7402 22.9636 24.7259 22.9636 24.6895C22.9636 24.6154 21.9371 23.5644 21.8646 23.5644C21.8391 23.5644 21.8139 23.5933 21.8086 23.6287ZM14.0682 24.3551L13.7408 24.6906L14.9897 25.962C15.6766 26.6613 16.2452 27.226 16.2532 27.217C16.2612 27.2079 15.8465 26.4848 15.3317 25.6101L14.3956 24.0196L14.0682 24.3551ZM20.8141 25.3503C20.3862 26.0847 19.961 26.816 19.8691 26.9752C19.7429 27.1942 20.0145 26.9511 20.9822 25.979L22.2622 24.6932L21.931 24.354C21.7489 24.1675 21.5959 24.0149 21.5959 24.0149C21.5959 24.0149 21.2419 24.6157 20.8141 25.3503Z" stroke="#4C0213" stroke-width="0.26" mask="url(#path-2-outside-1_17_291)"/>
<path d="M56.86 11.2H59.92V25H57.92V18.66C57.92 16.86 58.04 14.94 58.3 12.94H57.88L54.16 24.12H51.64L47.66 12.94H47.26C47.54 15.22 47.7 17.12 47.7 18.66V25H45.7V11.2H48.68L50.82 16.3C51.92 19.04 52.56 21.06 52.72 22.38H53.12C53.26 21.08 53.86 19.06 54.92 16.3L56.86 11.2ZM72.3572 24.74C72.1972 24.86 71.9972 24.98 71.7172 25.08C71.4372 25.2 71.1572 25.24 70.9172 25.24C70.3172 25.24 69.8572 25.08 69.5372 24.74C69.2172 24.42 69.0572 23.9 69.0572 23.22C69.0572 22.94 69.0772 22.64 69.1372 22.36H68.7372C68.4972 23.36 68.0972 24.08 67.5372 24.54C66.9572 25.02 66.1772 25.24 65.1972 25.24C64.0972 25.24 63.2372 24.98 62.6172 24.42C61.9772 23.86 61.6772 23.14 61.6772 22.26C61.6772 21.18 62.1172 20.36 62.9972 19.8C63.8772 19.24 65.0572 18.96 66.5372 18.96C67.2172 18.96 67.9572 19.02 68.7172 19.14V18.32C68.7172 16.98 67.8972 16.3 66.2972 16.3C65.5772 16.3 64.9972 16.48 64.5972 16.8C64.1972 17.12 63.8972 17.62 63.7372 18.26L62.1572 17.78C62.2772 16.82 62.7372 16.08 63.5372 15.56C64.3172 15.04 65.3172 14.76 66.5572 14.76C67.7972 14.76 68.7972 15.06 69.5372 15.66C70.2772 16.26 70.6572 17.12 70.6572 18.2V22.42C70.6572 22.84 70.6972 23.16 70.8172 23.4C70.9372 23.64 71.0972 23.74 71.3372 23.74C71.4972 23.74 71.6772 23.68 71.8972 23.54L72.3572 24.74ZM68.6772 20.5C67.9972 20.44 67.4572 20.4 67.0372 20.4C65.9572 20.4 65.1372 20.56 64.5572 20.86C63.9772 21.16 63.6972 21.62 63.6972 22.22C63.6972 22.66 63.8372 23 64.1372 23.24C64.4372 23.5 64.8572 23.62 65.3972 23.62C67.3372 23.62 68.4372 22.58 68.6772 20.5ZM80.0648 15.36L79.5648 17.32C79.4248 17.16 79.2048 17 78.9248 16.84C78.6448 16.68 78.3248 16.6 77.9848 16.6C77.4248 16.6 76.9448 16.82 76.5048 17.22C76.0648 17.64 75.7048 18.24 75.4648 19.04C75.2248 19.84 75.1048 20.8 75.1048 21.92V25H73.1648V15H74.7248L74.9248 18.16H75.3048C75.4248 17.16 75.7448 16.36 76.2648 15.72C76.7648 15.08 77.4448 14.76 78.2848 14.76C79.0048 14.76 79.5848 14.96 80.0648 15.36ZM87.1656 15H89.2656L85.5656 25C85.0056 26.44 84.4256 27.4 83.8656 27.92C83.2856 28.44 82.6056 28.7 81.8456 28.7C81.3656 28.7 80.9256 28.62 80.5256 28.44C80.1256 28.28 79.8056 28.08 79.5856 27.88L80.4856 26.42C81.0056 26.8 81.4856 26.98 81.9456 26.98C82.4456 26.98 82.9056 26.8 83.3056 26.42C83.7056 26.06 84.0056 25.58 84.1656 25H83.1456L79.4656 15H81.6456L83.3256 20.2C83.5256 20.9 83.7056 21.5 83.8456 22C83.9856 22.5 84.1056 23.04 84.2256 23.6H84.5856C84.7056 22.88 84.9656 21.88 85.3256 20.64C85.3456 20.58 85.3856 20.44 85.4656 20.2L87.1656 15ZM91.9303 11.08C92.1903 11.36 92.3303 11.74 92.3303 12.24C92.3303 12.84 92.2303 13.52 92.0303 14.32C91.8303 15.12 91.6103 15.86 91.3303 16.5C91.0503 17.16 90.7903 17.58 90.5703 17.74L89.2703 16.02C89.8703 15.38 90.3703 14.82 90.7303 14.32C91.0903 13.82 91.3703 13.24 91.5903 12.58C91.3103 12.86 90.9703 13 90.6103 13C90.2503 13 89.9703 12.9 89.7703 12.7C89.5703 12.5 89.4703 12.22 89.4703 11.9C89.4703 11.54 89.5903 11.26 89.8303 11.02C90.0703 10.78 90.4103 10.66 90.8103 10.66C91.2903 10.66 91.6503 10.8 91.9303 11.08ZM93.9603 24.54C93.2003 24.06 92.7403 23.38 92.6203 22.46L94.1403 21.98C94.3403 23.08 95.2803 23.62 96.9403 23.62C97.6203 23.62 98.1603 23.5 98.6003 23.24C99.0203 23 99.2403 22.62 99.2403 22.1C99.2403 21.74 99.1203 21.44 98.9003 21.24C98.6803 21.04 98.3603 20.88 97.9203 20.78C97.4803 20.68 96.8803 20.58 96.0803 20.5C95.0003 20.38 94.1603 20.12 93.5603 19.7C92.9403 19.3 92.6403 18.62 92.6403 17.68C92.6403 16.82 92.9803 16.12 93.7003 15.58C94.4003 15.04 95.4003 14.76 96.7003 14.76C97.9003 14.76 98.8603 15 99.5803 15.48C100.3 15.96 100.72 16.64 100.86 17.54L99.3403 18.02C99.1003 16.88 98.2203 16.3 96.6803 16.3C95.9803 16.3 95.4403 16.42 95.0403 16.64C94.6403 16.86 94.4603 17.18 94.4603 17.6C94.4603 17.96 94.6003 18.24 94.8803 18.42C95.1603 18.62 95.4803 18.74 95.8803 18.8C96.2603 18.86 96.8203 18.92 97.5803 18.98C98.6603 19.1 99.5203 19.36 100.14 19.8C100.76 20.24 101.08 20.94 101.08 21.94C101.08 22.98 100.68 23.8 99.9003 24.38C99.1003 24.96 98.1203 25.24 96.9403 25.24C95.7003 25.24 94.7203 25.02 93.9603 24.54ZM115.212 11.2V20.88C115.212 22.28 114.812 23.34 114.032 24.1C113.252 24.86 112.072 25.24 110.512 25.24C109.032 25.24 107.832 24.86 106.952 24.1C106.052 23.34 105.512 22.34 105.312 21.12L107.012 20.54C107.232 21.5 107.652 22.24 108.272 22.74C108.872 23.26 109.632 23.5 110.512 23.5C111.332 23.5 111.972 23.28 112.452 22.82C112.932 22.38 113.172 21.7 113.172 20.8V12.94H107.552V11.2H115.212ZM124.949 16.1C125.749 17 126.169 18.22 126.169 19.78C126.169 20.2 126.149 20.52 126.129 20.72H118.829C118.909 21.66 119.229 22.38 119.749 22.88C120.269 23.4 120.929 23.64 121.729 23.64C122.429 23.64 123.009 23.5 123.449 23.2C123.889 22.92 124.209 22.48 124.449 21.92L125.929 22.4C125.689 23.28 125.189 23.98 124.449 24.48C123.709 25 122.769 25.24 121.609 25.24C120.069 25.24 118.889 24.8 118.049 23.92C117.209 23.04 116.809 21.8 116.809 20.22C116.809 19.16 116.989 18.22 117.389 17.4C117.769 16.58 118.329 15.94 119.069 15.46C119.809 15 120.689 14.76 121.689 14.76C123.049 14.76 124.149 15.22 124.949 16.1ZM119.789 17.1C119.269 17.62 118.969 18.36 118.849 19.32H124.269C124.229 18.38 124.009 17.64 123.569 17.1C123.129 16.58 122.489 16.3 121.669 16.3C120.909 16.3 120.289 16.58 119.789 17.1ZM139.72 15H141.68L138.82 25H135.86L134.72 19.96C134.42 18.74 134.24 17.6 134.18 16.54H133.74C133.64 17.54 133.46 18.68 133.18 19.96L132.08 25H129.02L126.12 15H128.22L129.76 21.2C129.84 21.6 129.92 21.84 129.96 21.96C130 22.16 130.08 22.44 130.16 22.8C130.24 23.16 130.3 23.42 130.34 23.6H130.78C130.8 23.44 130.84 23.2 130.92 22.88C131 22.56 131.06 22.32 131.1 22.14L131.32 21.2L132.66 15H135.28L136.72 21.48L136.92 22.34C137.08 22.94 137.16 23.36 137.2 23.6H137.66C137.68 23.4 137.74 23.1 137.84 22.7C137.92 22.3 138 22.04 138.04 21.88L138.14 21.48L139.72 15ZM149.589 16.1C150.389 17 150.809 18.22 150.809 19.78C150.809 20.2 150.789 20.52 150.769 20.72H143.469C143.549 21.66 143.869 22.38 144.389 22.88C144.909 23.4 145.569 23.64 146.369 23.64C147.069 23.64 147.649 23.5 148.089 23.2C148.529 22.92 148.849 22.48 149.089 21.92L150.569 22.4C150.329 23.28 149.829 23.98 149.089 24.48C148.349 25 147.409 25.24 146.249 25.24C144.709 25.24 143.529 24.8 142.689 23.92C141.849 23.04 141.449 21.8 141.449 20.22C141.449 19.16 141.629 18.22 142.029 17.4C142.409 16.58 142.969 15.94 143.709 15.46C144.449 15 145.329 14.76 146.329 14.76C147.689 14.76 148.789 15.22 149.589 16.1ZM144.429 17.1C143.909 17.62 143.609 18.36 143.489 19.32H148.909C148.869 18.38 148.649 17.64 148.209 17.1C147.769 16.58 147.129 16.3 146.309 16.3C145.549 16.3 144.929 16.58 144.429 17.1ZM156.518 24.78C156.358 24.9 156.098 25.02 155.698 25.1C155.298 25.2 154.898 25.24 154.458 25.24C153.678 25.24 153.118 25.06 152.758 24.68C152.398 24.3 152.218 23.7 152.218 22.9V10.9H154.158V22.56C154.158 23.24 154.478 23.58 155.138 23.58C155.458 23.58 155.778 23.5 156.098 23.32L156.518 24.78ZM158.198 24.54C157.438 24.06 156.978 23.38 156.858 22.46L158.378 21.98C158.578 23.08 159.518 23.62 161.178 23.62C161.858 23.62 162.398 23.5 162.838 23.24C163.258 23 163.478 22.62 163.478 22.1C163.478 21.74 163.358 21.44 163.138 21.24C162.918 21.04 162.598 20.88 162.158 20.78C161.718 20.68 161.118 20.58 160.318 20.5C159.238 20.38 158.398 20.12 157.798 19.7C157.178 19.3 156.878 18.62 156.878 17.68C156.878 16.82 157.218 16.12 157.938 15.58C158.638 15.04 159.638 14.76 160.938 14.76C162.138 14.76 163.098 15 163.818 15.48C164.538 15.96 164.958 16.64 165.098 17.54L163.578 18.02C163.338 16.88 162.458 16.3 160.918 16.3C160.218 16.3 159.678 16.42 159.278 16.64C158.878 16.86 158.698 17.18 158.698 17.6C158.698 17.96 158.838 18.24 159.118 18.42C159.398 18.62 159.718 18.74 160.118 18.8C160.498 18.86 161.058 18.92 161.818 18.98C162.898 19.1 163.758 19.36 164.378 19.8C164.998 20.24 165.318 20.94 165.318 21.94C165.318 22.98 164.918 23.8 164.138 24.38C163.338 24.96 162.358 25.24 161.178 25.24C159.938 25.24 158.958 25.02 158.198 24.54ZM182.61 25.02C182.61 24.42 182.31 23.74 181.71 22.98C180.99 23.7 180.15 24.26 179.19 24.66C178.21 25.06 177.11 25.24 175.91 25.24C174.21 25.24 172.85 24.92 171.85 24.24C170.85 23.56 170.35 22.54 170.35 21.18C170.35 20.02 170.75 19.08 171.57 18.34C172.37 17.62 173.39 17.12 174.63 16.86C174.15 16.54 173.75 16.12 173.47 15.64C173.17 15.16 173.03 14.64 173.03 14.1C173.03 13.56 173.17 13.06 173.47 12.58C173.75 12.1 174.21 11.72 174.85 11.42C175.49 11.12 176.29 10.96 177.27 10.96C178.59 10.96 179.59 11.22 180.27 11.74C180.95 12.26 181.31 12.98 181.31 13.92C181.31 14.94 180.97 15.78 180.33 16.42C179.67 17.06 178.83 17.54 177.81 17.84C178.73 18.44 179.45 18.92 179.99 19.28C180.53 19.64 181.07 20.04 181.59 20.48C182.01 19.78 182.33 18.98 182.55 18.06C182.77 17.16 182.89 16.2 182.91 15.18H184.43C184.43 16.38 184.29 17.52 184.01 18.62C183.73 19.72 183.33 20.72 182.79 21.6C183.89 22.78 184.45 23.92 184.45 25L182.61 25.02ZM175.53 13.02C175.13 13.34 174.95 13.78 174.95 14.32C174.95 14.76 175.05 15.16 175.27 15.52C175.47 15.88 175.75 16.26 176.11 16.62C177.15 16.42 177.97 16.12 178.57 15.72C179.17 15.32 179.49 14.78 179.49 14.08C179.49 13.6 179.29 13.22 178.93 12.94C178.57 12.66 178.01 12.52 177.27 12.52C176.51 12.52 175.93 12.7 175.53 13.02ZM180.59 21.8C179.95 21.24 179.13 20.54 178.13 19.74C177.97 19.62 177.67 19.38 177.27 19.04C176.87 18.72 176.53 18.42 176.25 18.16L176.07 18.18C175.03 18.28 174.15 18.58 173.43 19.1C172.71 19.62 172.37 20.26 172.37 21.06C172.37 21.9 172.71 22.52 173.39 22.96C174.07 23.4 174.95 23.62 176.05 23.62C177.89 23.62 179.41 23.02 180.59 21.8ZM205.439 11.2H207.699L204.159 25H200.759L199.059 17C198.699 15.28 198.479 13.92 198.439 12.94H197.959C197.879 14.14 197.699 15.5 197.379 17L195.699 25H192.199L188.719 11.2H190.979L192.719 18.26C192.839 18.74 192.979 19.56 193.179 20.68C193.379 21.8 193.499 22.66 193.559 23.26H194.359C194.419 22.68 194.539 21.82 194.739 20.7C194.939 19.58 195.079 18.76 195.199 18.26L196.679 11.2H199.799L201.239 18.26C201.379 18.92 201.559 19.78 201.759 20.84C201.959 21.9 202.079 22.7 202.159 23.26H202.979C203.019 22.68 203.139 21.82 203.339 20.7C203.519 19.58 203.659 18.76 203.779 18.26L205.439 11.2ZM217.992 24.74C217.832 24.86 217.632 24.98 217.352 25.08C217.072 25.2 216.792 25.24 216.552 25.24C215.952 25.24 215.492 25.08 215.172 24.74C214.852 24.42 214.692 23.9 214.692 23.22C214.692 22.94 214.712 22.64 214.772 22.36H214.372C214.132 23.36 213.732 24.08 213.172 24.54C212.592 25.02 211.812 25.24 210.832 25.24C209.732 25.24 208.872 24.98 208.252 24.42C207.612 23.86 207.312 23.14 207.312 22.26C207.312 21.18 207.752 20.36 208.632 19.8C209.512 19.24 210.692 18.96 212.172 18.96C212.852 18.96 213.592 19.02 214.352 19.14V18.32C214.352 16.98 213.532 16.3 211.932 16.3C211.212 16.3 210.632 16.48 210.232 16.8C209.832 17.12 209.532 17.62 209.372 18.26L207.792 17.78C207.912 16.82 208.372 16.08 209.172 15.56C209.952 15.04 210.952 14.76 212.192 14.76C213.432 14.76 214.432 15.06 215.172 15.66C215.912 16.26 216.292 17.12 216.292 18.2V22.42C216.292 22.84 216.332 23.16 216.452 23.4C216.572 23.64 216.732 23.74 216.972 23.74C217.132 23.74 217.312 23.68 217.532 23.54L217.992 24.74ZM214.312 20.5C213.632 20.44 213.092 20.4 212.672 20.4C211.592 20.4 210.772 20.56 210.192 20.86C209.612 21.16 209.332 21.62 209.332 22.22C209.332 22.66 209.472 23 209.772 23.24C210.072 23.5 210.492 23.62 211.032 23.62C212.972 23.62 214.072 22.58 214.312 20.5ZM225.719 23.34C225.399 23.88 224.959 24.34 224.419 24.7C223.859 25.06 223.179 25.24 222.359 25.24C221.359 25.24 220.619 25.02 220.119 24.56C219.599 24.1 219.359 23.46 219.359 22.62V16.54H218.099V15H219.539L220.119 12.08H221.299V15H225.119V16.54H221.299V22.24C221.299 23.16 221.779 23.6 222.739 23.6C223.179 23.6 223.559 23.48 223.899 23.2C224.219 22.92 224.539 22.6 224.839 22.2L225.719 23.34ZM227.155 23.92C226.255 23.04 225.815 21.74 225.815 20C225.815 18.88 226.015 17.94 226.455 17.14C226.875 16.36 227.455 15.76 228.215 15.36C228.975 14.96 229.815 14.76 230.775 14.76C231.935 14.76 232.855 15 233.575 15.48C234.275 15.96 234.695 16.64 234.835 17.54L233.315 18.02C233.075 16.88 232.255 16.3 230.835 16.3C229.955 16.3 229.235 16.62 228.675 17.26C228.115 17.9 227.835 18.82 227.835 20.02C227.835 21.16 228.095 22.04 228.655 22.68C229.195 23.32 229.935 23.62 230.855 23.62C231.455 23.62 231.995 23.48 232.435 23.18C232.875 22.9 233.215 22.48 233.455 21.92L234.935 22.4C234.695 23.28 234.215 23.98 233.495 24.48C232.775 25 231.855 25.24 230.735 25.24C229.235 25.24 228.035 24.8 227.155 23.92ZM244.332 15.6C244.892 16.16 245.192 16.94 245.192 17.94V25H243.252V18.8C243.252 18.1 243.072 17.56 242.732 17.16C242.392 16.78 241.912 16.58 241.292 16.58C240.712 16.58 240.192 16.78 239.712 17.16C239.232 17.54 238.852 18.08 238.572 18.8C238.292 19.52 238.172 20.38 238.172 21.36V25H236.232V10.9H238.172V13.84C238.172 15.18 238.112 16.44 238.032 17.6H238.472C239.132 15.72 240.332 14.76 242.092 14.76C243.012 14.76 243.752 15.04 244.332 15.6ZM254.532 16.1C255.332 17 255.752 18.22 255.752 19.78C255.752 20.2 255.732 20.52 255.712 20.72H248.412C248.492 21.66 248.812 22.38 249.332 22.88C249.852 23.4 250.512 23.64 251.312 23.64C252.012 23.64 252.592 23.5 253.032 23.2C253.472 22.92 253.792 22.48 254.032 21.92L255.512 22.4C255.272 23.28 254.772 23.98 254.032 24.48C253.292 25 252.352 25.24 251.192 25.24C249.652 25.24 248.472 24.8 247.632 23.92C246.792 23.04 246.392 21.8 246.392 20.22C246.392 19.16 246.572 18.22 246.972 17.4C247.352 16.58 247.912 15.94 248.652 15.46C249.392 15 250.272 14.76 251.272 14.76C252.632 14.76 253.732 15.22 254.532 16.1ZM249.372 17.1C248.852 17.62 248.552 18.36 248.432 19.32H253.852C253.812 18.38 253.592 17.64 253.152 17.1C252.712 16.58 252.072 16.3 251.252 16.3C250.492 16.3 249.872 16.58 249.372 17.1ZM257.901 24.54C257.141 24.06 256.681 23.38 256.561 22.46L258.081 21.98C258.281 23.08 259.221 23.62 260.881 23.62C261.561 23.62 262.101 23.5 262.541 23.24C262.961 23 263.181 22.62 263.181 22.1C263.181 21.74 263.061 21.44 262.841 21.24C262.621 21.04 262.301 20.88 261.861 20.78C261.421 20.68 260.821 20.58 260.021 20.5C258.941 20.38 258.101 20.12 257.501 19.7C256.881 19.3 256.581 18.62 256.581 17.68C256.581 16.82 256.921 16.12 257.641 15.58C258.341 15.04 259.341 14.76 260.641 14.76C261.841 14.76 262.801 15 263.521 15.48C264.241 15.96 264.661 16.64 264.801 17.54L263.281 18.02C263.041 16.88 262.161 16.3 260.621 16.3C259.921 16.3 259.381 16.42 258.981 16.64C258.581 16.86 258.401 17.18 258.401 17.6C258.401 17.96 258.541 18.24 258.821 18.42C259.101 18.62 259.421 18.74 259.821 18.8C260.201 18.86 260.761 18.92 261.521 18.98C262.601 19.1 263.461 19.36 264.081 19.8C264.701 20.24 265.021 20.94 265.021 21.94C265.021 22.98 264.621 23.8 263.841 24.38C263.041 24.96 262.061 25.24 260.881 25.24C259.641 25.24 258.661 25.02 257.901 24.54Z" fill="white"/>
</svg>
